<svg xmlns="http://www.w3.org/2000/svg" viewBox="0 0 64 64">
  <defs>
    <linearGradient id="cpGradient" x1="6" y1="6" x2="58" y2="58" gradientUnits="userSpaceOnUse">
      <stop stop-color="#0ea5e9" />
      <stop offset="0.5" stop-color="#6366f1" />
      <stop offset="1" stop-color="#ec4899" />
    </linearGradient>
  </defs>
  <rect width="64" height="64" rx="18" fill="#0f172a" />
  <rect x="6" y="6" width="52" height="52" rx="15" fill="url(#cpGradient)" opacity="0.18" />
  <path d="M23 22c-5.523 0-10 4.477-10 10s4.477 10 10 10h7v-6h-7a4 4 0 1 1 0-8h11v20h6V22H23z" fill="#f8fafc" />
  <path d="M36 18h8c4.971 0 9 4.029 9 9s-4.029 9-9 9h-8v12h-6V18h6zm0 6v6h8a3 3 0 1 0 0-6h-8z" fill="#f8fafc" />
</svg>
